<svg width="43" height="39" viewBox="0 0 43 39" fill="none" xmlns="http://www.w3.org/2000/svg">
<g clip-path="url(#clip0_4_31)">
<path d="M42.1848 19.8887C42.1848 9.39533 32.8119 0.888672 21.25 0.888672C9.68814 0.888672 0.315247 9.39518 0.315247 19.8887C0.315247 29.372 7.97083 37.2326 17.979 38.6579V25.3809H12.6635V19.8887H17.979V15.7027C17.979 10.9409 21.1045 8.31055 25.8863 8.31055C28.1768 8.31055 30.5725 8.68164 30.5725 8.68164V13.3574H27.9328C25.332 13.3574 24.5211 14.8221 24.5211 16.3247V19.8887H30.3272L29.3991 25.3809H24.5211V38.6579C34.5292 37.2326 42.1848 29.3722 42.1848 19.8887Z" fill="#1877F2" fill-opacity="0.61"/>
<path d="M29.3991 25.3809L30.3272 19.8887H24.5211V16.3247C24.5211 14.8219 25.3322 13.3574 27.9328 13.3574H30.5726V8.68164C30.5726 8.68164 28.1768 8.31055 25.8863 8.31055C21.1045 8.31055 17.979 10.9409 17.979 15.7027V19.8887H12.6635V25.3809H17.979V38.6579C19.0611 38.8118 20.1547 38.8889 21.25 38.8887C22.3453 38.889 23.439 38.8118 24.5211 38.6579V25.3809H29.3991Z" fill="white"/>
</g>
<defs>
<clipPath id="clip0_4_31">
<rect width="41.8696" height="38" fill="white" transform="translate(0.315247 0.888672)"/>
</clipPath>
</defs>
</svg>
