<svg width="28" height="27" viewBox="0 0 28 27" fill="none" xmlns="http://www.w3.org/2000/svg">
<path d="M27.631 6.60344L27.961 8.30313C28.011 8.56097 28.011 8.8165 27.969 9.057C28.0068 9.22778 28.0103 9.40629 27.9793 9.5789C27.9483 9.7515 27.8836 9.91362 27.7901 10.0529C27.6966 10.1921 27.5768 10.3048 27.4399 10.3823C27.3029 10.4598 27.1525 10.5 27 10.5H24.745L23.262 8.21409V8.21178C23.0247 7.84467 22.7165 7.54675 22.362 7.34179C22.0074 7.13682 21.6164 7.03048 21.22 7.03125H21V5.07719C21 4.24238 20.412 3.5625 19.69 3.5625H18.31C17.588 3.5625 17 4.24238 17 5.07719V7.01969H11V5.07719C11 4.24238 10.412 3.5625 9.69 3.5625H8.31C7.588 3.5625 7 4.24238 7 5.07719V7.03125H6.78C5.972 7.03125 5.217 7.47178 4.73 8.22219L3.254 10.5H0.999996C0.847532 10.5 0.697079 10.4598 0.560138 10.3823C0.423198 10.3048 0.303396 10.1921 0.209893 10.0529C0.116389 9.91362 0.0516601 9.7515 0.0206537 9.5789C-0.0103527 9.40629 -0.00681515 9.22778 0.0309958 9.057C-0.0127824 8.80791 -0.0100547 8.55089 0.038996 8.30313L0.358996 6.60344C0.71548 4.75768 1.60495 3.10731 2.88093 1.92408C4.15692 0.740854 5.74335 0.0953108 7.379 0.09375H20.621C22.2558 0.093934 23.8417 0.739202 25.1163 1.92287C26.391 3.10654 27.2781 4.75773 27.631 6.60344Z" fill="white"/>
<path d="M22.46 8.90437L26.12 14.5469C27.3405 16.4237 28.0003 18.7084 28 21.0566V24.8838C28 25.8781 27.3 26.6875 26.44 26.6875H1.56C0.7 26.6875 0 25.8781 0 24.8838V21.0566C0 18.7094 0.66 16.42 1.88 14.5469L5.53 8.91594C5.83 8.45344 6.29 8.1875 6.78 8.1875H7.69C7.86 8.1875 8 8.02562 8 7.82906V5.07719C8 4.88063 8.14 4.71875 8.31 4.71875H9.69C9.86 4.71875 10 4.88063 10 5.07719V7.82906C10 8.02562 10.14 8.1875 10.31 8.1875H17.69C17.86 8.1875 18 8.02562 18 7.82906V5.07719C18 4.88063 18.14 4.71875 18.31 4.71875H19.69C19.86 4.71875 20 4.88063 20 5.07719V7.82906C20 8.02562 20.14 8.1875 20.31 8.1875H21.22C21.71 8.1875 22.17 8.45344 22.46 8.90437ZM11.698 13.9688C11.868 13.9688 12.009 13.8069 11.999 13.608V12.017C11.9987 11.9216 11.9659 11.8302 11.9077 11.7627C11.8494 11.6951 11.7705 11.6569 11.688 11.6562H10.311C10.141 11.6562 10 11.8181 10 12.017V13.608C10 13.8057 10.14 13.9688 10.322 13.9688H11.698ZM14.698 13.9688C14.7386 13.9691 14.7788 13.9599 14.8163 13.9418C14.8537 13.9236 14.8876 13.8969 14.9158 13.8631C14.944 13.8294 14.9661 13.7894 14.9805 13.7456C14.995 13.7017 15.0016 13.6549 15 13.608V12.017C14.9995 11.9215 14.9664 11.8301 14.908 11.7626C14.8496 11.6951 14.7706 11.6569 14.688 11.6562H13.312C13.2293 11.6566 13.1501 11.6947 13.0917 11.7622C13.0332 11.8298 13.0003 11.9214 13 12.017V13.608C13 13.8057 13.14 13.9688 13.322 13.9688H14.698ZM16.321 13.9688H17.698C17.7386 13.9691 17.7788 13.9599 17.8163 13.9418C17.8537 13.9236 17.8876 13.8969 17.9158 13.8631C17.944 13.8294 17.9661 13.7894 17.9805 13.7456C17.995 13.7017 18.0016 13.6549 18 13.608V12.017C17.9995 11.9215 17.9664 11.8301 17.908 11.7626C17.8496 11.6951 17.7706 11.6569 17.688 11.6562H16.311C16.141 11.6562 16 11.8181 16 12.017V13.608C16 13.8057 16.14 13.9688 16.322 13.9688H16.321ZM11.698 17.4375C11.868 17.4375 12.009 17.2756 11.999 17.0767V15.4858C11.9987 15.3904 11.9659 15.299 11.9077 15.2314C11.8494 15.1638 11.7705 15.1256 11.688 15.125H10.311C10.141 15.125 10 15.2869 10 15.4858V17.0767C10 17.2745 10.14 17.4375 10.322 17.4375H11.698ZM13.321 17.4375H14.698C14.7386 17.4379 14.7788 17.4287 14.8163 17.4105C14.8537 17.3924 14.8876 17.3656 14.9158 17.3319C14.944 17.2982 14.9661 17.2582 14.9805 17.2143C14.995 17.1704 15.0016 17.1237 15 17.0767V15.4858C14.9995 15.3903 14.9664 15.2989 14.908 15.2313C14.8496 15.1638 14.7706 15.1256 14.688 15.125H13.312C13.2293 15.1253 13.1501 15.1634 13.0917 15.231C13.0332 15.2986 13.0003 15.3902 13 15.4858V17.0767C13 17.2745 13.139 17.4375 13.321 17.4375ZM17.698 17.4375C17.7386 17.4379 17.7788 17.4287 17.8163 17.4105C17.8537 17.3924 17.8876 17.3656 17.9158 17.3319C17.944 17.2982 17.9661 17.2582 17.9805 17.2143C17.995 17.1704 18.0016 17.1237 18 17.0767V15.4858C17.9995 15.3903 17.9664 15.2989 17.908 15.2313C17.8496 15.1638 17.7706 15.1256 17.688 15.125H16.311C16.141 15.125 16 15.2869 16 15.4858V17.0767C16 17.2745 16.14 17.4375 16.322 17.4375H17.698ZM10.321 20.9062H11.698C11.868 20.9062 12.009 20.7444 11.999 20.5455V18.9545C11.9987 18.8591 11.9659 18.7677 11.9077 18.7002C11.8494 18.6326 11.7705 18.5944 11.688 18.5938H10.311C10.141 18.5938 10 18.7556 10 18.9545V20.5455C10 20.7432 10.139 20.9062 10.321 20.9062ZM14.698 20.9062C14.7386 20.9066 14.7788 20.8974 14.8163 20.8793C14.8537 20.8611 14.8876 20.8344 14.9158 20.8006C14.944 20.7669 14.9661 20.7269 14.9805 20.6831C14.995 20.6392 15.0016 20.5924 15 20.5455V18.9545C14.9995 18.859 14.9664 18.7676 14.908 18.7001C14.8496 18.6326 14.7706 18.5944 14.688 18.5938H13.312C13.2293 18.5941 13.1501 18.6322 13.0917 18.6997C13.0332 18.7673 13.0003 18.8589 13 18.9545V20.5455C13 20.7432 13.14 20.9062 13.322 20.9062H14.698ZM16.321 20.9062H17.698C17.7386 20.9066 17.7788 20.8974 17.8163 20.8793C17.8537 20.8611 17.8876 20.8344 17.9158 20.8006C17.944 20.7669 17.9661 20.7269 17.9805 20.6831C17.995 20.6392 18.0016 20.5924 18 20.5455V18.9545C17.9995 18.859 17.9664 18.7676 17.908 18.7001C17.8496 18.6326 17.7706 18.5944 17.688 18.5938H16.311C16.141 18.5938 16 18.7556 16 18.9545V20.5455C16 20.7432 16.14 20.9062 16.322 20.9062H16.321Z" fill="white"/>
</svg>
