<svg width="42" height="39" viewBox="0 0 42 39" fill="none" xmlns="http://www.w3.org/2000/svg">
<g clip-path="url(#clip0_4_28)">
<path d="M20.9348 0.888672C15.3838 0.888672 10.0552 2.89169 6.13324 6.45359C2.20719 10.0169 0.00108753 14.8495 0 19.8887C0 24.9257 2.20797 29.7618 6.13324 33.3237C10.0552 36.8857 15.3838 38.8887 20.9348 38.8887C26.4858 38.8887 31.8143 36.8857 35.7363 33.3237C39.6616 29.7618 41.8696 24.9257 41.8696 19.8887C41.8696 14.8516 39.6616 10.0155 35.7363 6.45359C31.8143 2.89169 26.4858 0.888672 20.9348 0.888672Z" fill="url(#paint0_linear_4_28)"/>
<path d="M9.47626 19.6877C15.5801 17.2747 19.6493 15.6838 21.6839 14.9152C27.4998 12.7204 28.7068 12.3392 29.4951 12.3263C29.6685 12.3238 30.0545 12.3627 30.3064 12.5475C30.5157 12.7033 30.5746 12.9141 30.604 13.0621C30.6302 13.2099 30.6662 13.5469 30.6367 13.8099C30.3227 16.8143 28.9587 24.1049 28.2652 27.47C27.9741 28.8938 27.3951 29.3712 26.8358 29.4178C25.6189 29.5194 24.6965 28.6887 23.5189 27.9884C21.6773 26.892 20.6371 26.2098 18.8478 25.1402C16.7805 23.904 18.1217 23.2244 19.2993 22.1141C19.6067 21.8235 24.9647 17.4015 25.0661 17.0004C25.0792 16.9503 25.0923 16.7632 24.968 16.6647C24.847 16.5658 24.6671 16.5997 24.5362 16.6264C24.3498 16.6644 21.4091 18.4302 15.7044 21.9235C14.8702 22.4442 14.1146 22.6981 13.4342 22.6847C12.6884 22.6702 11.2492 22.3011 10.1795 21.9859C8.87112 21.599 7.82765 21.3945 7.91924 20.7375C7.96503 20.3955 8.48513 20.0455 9.47626 19.6877Z" fill="white"/>
</g>
<defs>
<linearGradient id="paint0_linear_4_28" x1="2093.48" y1="0.888672" x2="2093.48" y2="3800.89" gradientUnits="userSpaceOnUse">
<stop stop-color="#2AABEE" stop-opacity="0.61"/>
<stop offset="1" stop-color="#229ED9"/>
</linearGradient>
<clipPath id="clip0_4_28">
<rect width="41.8696" height="38" fill="white" transform="translate(0 0.888672)"/>
</clipPath>
</defs>
</svg>
