<svg width="22" height="29" viewBox="0 0 22 29" fill="none" xmlns="http://www.w3.org/2000/svg">
<g clip-path="url(#clip0_4_67)">
<path d="M15.0198 12.4426L8.01349 4.76257C7.89658 4.63436 7.74219 4.56398 7.58233 4.56601C7.42247 4.56805 7.26941 4.64235 7.1549 4.77351L7.14751 4.78239C7.0918 4.84597 7.04768 4.92222 7.01783 5.00648C6.98797 5.09075 6.97301 5.18128 6.97385 5.27255C6.97469 5.36383 6.99132 5.45396 7.02272 5.53744C7.05412 5.62093 7.09964 5.69603 7.15651 5.75818L13.7542 12.9898L7.29133 20.3849C7.23562 20.4485 7.1915 20.5248 7.16165 20.609C7.13179 20.6933 7.11683 20.7838 7.11767 20.8751C7.11851 20.9664 7.13514 21.0565 7.16654 21.14C7.19794 21.2235 7.24346 21.2986 7.30033 21.3607L7.30787 21.3694C7.42478 21.4976 7.57917 21.568 7.73903 21.566C7.89889 21.5639 8.05195 21.4896 8.16646 21.3585L15.0295 13.5018C15.0899 13.4327 15.1377 13.3499 15.17 13.2584C15.2023 13.167 15.2185 13.0687 15.2176 12.9697C15.2167 12.8707 15.1987 12.7729 15.1647 12.6823C15.1307 12.5917 15.0814 12.5101 15.0198 12.4426Z" fill="#B7B7B7"/>
</g>
<defs>
<clipPath id="clip0_4_67">
<rect width="28.3716" height="21.415" fill="white" transform="matrix(0.00817923 0.999967 -0.999897 0.0143573 21.4128 0)"/>
</clipPath>
</defs>
</svg>
