<svg width="31" height="28" viewBox="0 0 31 28" fill="none" xmlns="http://www.w3.org/2000/svg">
<path d="M1.625 1.75V0.4375C1.31834 0.4375 1.02425 0.575781 0.807408 0.821922C0.590569 1.06806 0.46875 1.4019 0.46875 1.75H1.625ZM29.375 1.75H30.5312C30.5312 1.4019 30.4094 1.06806 30.1926 0.821922C29.9758 0.575781 29.6817 0.4375 29.375 0.4375V1.75ZM1.625 3.0625H29.375V0.4375H1.625V3.0625ZM28.2187 1.75V22.75H30.5312V1.75H28.2187ZM26.2917 24.9375H4.70833V27.5625H26.2917V24.9375ZM2.78125 22.75V1.75H0.46875V22.75H2.78125ZM4.70833 24.9375C3.64458 24.9375 2.78125 23.9575 2.78125 22.75H0.46875C0.46875 24.0264 0.915419 25.2504 1.7105 26.153C2.50557 27.0555 3.58393 27.5625 4.70833 27.5625V24.9375ZM28.2187 22.75C28.2187 23.9575 27.3554 24.9375 26.2917 24.9375V27.5625C27.4161 27.5625 28.4944 27.0555 29.2895 26.153C30.0846 25.2504 30.5312 24.0264 30.5312 22.75H28.2187Z" fill="#FCFCFC"/>
<path d="M1.625 1.75L15.5 17.5L29.375 1.75" stroke="#FCFCFC" stroke-width="1.5" stroke-linecap="round" stroke-linejoin="round"/>
</svg>
