<svg width="30" height="34" viewBox="0 0 30 34" fill="none" xmlns="http://www.w3.org/2000/svg">
<g clip-path="url(#clip0_4_17)">
<path fill-rule="evenodd" clip-rule="evenodd" d="M23.4375 12.7502C23.4414 14.7992 22.8607 16.7946 21.7819 18.4388L15 28.6877L8.21813 18.4388C7.42407 17.223 6.89586 15.811 6.67686 14.3188C6.45786 12.8267 6.55433 11.2969 6.95834 9.85524C7.36235 8.41355 8.06239 7.10105 9.00093 6.02555C9.93948 4.95005 11.0898 4.14223 12.3573 3.66846C13.6249 3.19468 14.9735 3.06846 16.2924 3.30017C17.6114 3.53187 18.863 4.11489 19.9445 5.00133C21.026 5.88778 21.9065 7.05235 22.5138 8.3994C23.121 9.74646 23.4376 11.2375 23.4375 12.7502ZM26.25 12.7502C26.25 15.5977 25.4269 18.2242 24.0375 20.345L16.7569 31.344L15 34.0002L13.2413 31.344L5.9625 20.345C4.90254 18.7245 4.19695 16.8421 3.90372 14.8525C3.61049 12.8629 3.73799 10.8228 4.27573 8.89987C4.81347 6.97695 5.74611 5.22608 6.99703 3.7911C8.24794 2.35613 9.78142 1.278 11.4715 0.645322C13.1615 0.0126395 14.9599 -0.156549 16.7189 0.151658C18.4779 0.459865 20.1472 1.23667 21.5898 2.41825C23.0323 3.59983 24.2069 5.15246 25.0171 6.94858C25.8272 8.74469 26.2498 10.733 26.25 12.7502ZM15 17.0002C15.9946 17.0002 16.9484 16.5524 17.6517 15.7554C18.3549 14.9584 18.75 13.8774 18.75 12.7502C18.75 11.623 18.3549 10.542 17.6517 9.745C16.9484 8.94797 15.9946 8.50021 15 8.50021C14.0054 8.50021 13.0516 8.94797 12.3484 9.745C11.6451 10.542 11.25 11.623 11.25 12.7502C11.25 13.8774 11.6451 14.9584 12.3484 15.7554C13.0516 16.5524 14.0054 17.0002 15 17.0002Z" fill="#FFF9F9"/>
</g>
<defs>
<clipPath id="clip0_4_17">
<rect width="30" height="34" fill="white"/>
</clipPath>
</defs>
</svg>
