<svg width="41" height="36" viewBox="0 0 41 36" fill="none" xmlns="http://www.w3.org/2000/svg">
<path d="M31.0907 0H10.0832C4.96461 0 0.815186 3.76594 0.815186 8.41146V27.4774C0.815186 32.123 4.96461 35.8889 10.0832 35.8889H31.0907C36.2092 35.8889 40.3587 32.123 40.3587 27.4774V8.41146C40.3587 3.76594 36.2092 0 31.0907 0Z" fill="white"/>
<path d="M31.0907 0H10.0832C4.96461 0 0.815186 3.76594 0.815186 8.41146V27.4774C0.815186 32.123 4.96461 35.8889 10.0832 35.8889H31.0907C36.2092 35.8889 40.3587 32.123 40.3587 27.4774V8.41146C40.3587 3.76594 36.2092 0 31.0907 0Z" fill="#0C71B6"/>
<path d="M31.6424 12.8154C31.6594 13.0379 31.6594 13.2604 31.6594 13.485C31.6594 20.3259 25.9213 28.2155 15.4288 28.2155V28.2113C12.3292 28.2154 9.29373 27.4097 6.68494 25.8905C7.13567 25.9397 7.58857 25.9642 8.0427 25.9652C10.6117 25.967 13.1069 25.185 15.1272 23.7447C13.9368 23.7243 12.7833 23.3668 11.8278 22.7222C10.8723 22.0776 10.1627 21.1781 9.79806 20.1495C10.6527 20.2991 11.5337 20.2686 12.3733 20.0604C9.71217 19.5723 7.79756 17.4503 7.79756 14.9857V14.9201C8.59089 15.3211 9.47875 15.5434 10.3864 15.5681C7.88005 14.0477 7.1074 11.0214 8.62087 8.65526C10.053 10.2547 11.8398 11.5628 13.8652 12.4947C15.8907 13.4265 18.1095 13.9612 20.3775 14.0641C20.1514 13.1807 20.1848 12.2588 20.4743 11.3908C20.7639 10.5228 21.2996 9.73896 22.0277 9.11775C24.3252 7.1576 27.9386 7.25811 30.0984 9.34219C31.3758 9.11329 32.6009 8.68826 33.7208 8.08538C33.2949 9.2841 32.4038 10.3016 31.2132 10.9486C32.344 10.8277 33.4483 10.553 34.4889 10.1337C33.7234 11.1742 32.7595 12.0822 31.6424 12.8154Z" fill="white"/>
</svg>
