<svg width="45" height="41" viewBox="0 0 45 41" fill="none" xmlns="http://www.w3.org/2000/svg">
<g clip-path="url(#clip0_4_39)">
<path d="M1.74746 20.7044C1.74642 24.0745 2.72425 27.3652 4.58358 30.2656L1.56964 40.1756L12.8312 37.5164C15.9461 39.0435 19.436 39.8436 22.9824 39.8438H22.9918C34.6993 39.8438 44.2295 31.2645 44.2345 20.7195C44.2367 15.6097 42.029 10.8047 38.0179 7.18977C34.0075 3.57511 28.6738 1.58339 22.9909 1.58105C11.282 1.58105 1.75247 10.1599 1.74763 20.7044" fill="url(#paint0_linear_4_39)"/>
<path d="M0.989045 20.698C0.987837 24.1893 2.00071 27.5977 3.92633 30.602L0.804321 40.8672L12.4697 38.1127C15.6839 39.6909 19.3028 40.523 22.9852 40.5242H22.9947C35.1222 40.5242 44.9948 31.6363 45 20.7138C45.002 15.4204 42.7149 10.4427 38.5605 6.69825C34.4056 2.95424 28.8812 0.890848 22.9947 0.888672C10.865 0.888672 0.993879 9.7753 0.989045 20.698ZM7.93605 30.0846L7.50048 29.4619C5.66947 26.8401 4.70303 23.8103 4.70441 20.6992C4.70839 11.6206 12.9129 4.23437 23.0016 4.23437C27.8873 4.23624 32.4788 5.95138 35.9323 9.06325C39.3856 12.1754 41.2858 16.3125 41.2846 20.7126C41.2801 29.7912 33.0754 37.1783 22.9947 37.1783H22.9874C19.705 37.1768 16.4858 36.383 13.6784 34.8828L13.0103 34.526L6.08777 36.1605L7.93605 30.0844V30.0846Z" fill="url(#paint1_linear_4_39)"/>
<path d="M17.4947 12.4169C17.0828 11.5924 16.6493 11.5758 16.2576 11.5613C15.9368 11.5489 15.5701 11.5498 15.2038 11.5498C14.8371 11.5498 14.2413 11.674 13.7378 12.1692C13.2336 12.6648 11.8132 13.8626 11.8132 16.2986C11.8132 18.7348 13.7835 21.0891 14.0582 21.4198C14.3332 21.7499 17.8619 26.909 23.4506 28.8937C28.0953 30.5431 29.0405 30.215 30.0485 30.1323C31.0568 30.0499 33.3018 28.9349 33.7598 27.7787C34.2181 26.6226 34.2181 25.6316 34.0807 25.4245C33.9433 25.2182 33.5766 25.0943 33.0267 24.8468C32.4767 24.5991 29.7735 23.4013 29.2696 23.236C28.7655 23.0709 28.399 22.9885 28.0323 23.4843C27.6656 23.9793 26.6127 25.0943 26.2917 25.4245C25.9711 25.7555 25.6502 25.7967 25.1005 25.5491C24.5503 25.3006 22.7796 24.7784 20.6787 23.0917C19.0442 21.7792 17.9407 20.1585 17.6199 19.6627C17.2991 19.1677 17.5855 18.8993 17.8612 18.6526C18.1083 18.4307 18.4113 18.0744 18.6865 17.7854C18.9606 17.4962 19.0521 17.2899 19.2355 16.9597C19.419 16.6292 19.3271 16.34 19.1899 16.0923C19.0521 15.8447 17.9836 13.3959 17.4947 12.4169Z" fill="#EDEDED"/>
</g>
<defs>
<linearGradient id="paint0_linear_4_39" x1="2134.81" y1="3861.03" x2="2134.81" y2="1.58105" gradientUnits="userSpaceOnUse">
<stop stop-color="#B6CFBA" stop-opacity="0.61"/>
<stop offset="1" stop-color="#24982D"/>
</linearGradient>
<linearGradient id="paint1_linear_4_39" x1="2210.59" y1="3998.74" x2="2210.59" y2="0.888672" gradientUnits="userSpaceOnUse">
<stop stop-color="#F9F9F9"/>
<stop offset="1" stop-color="#DDDDDD"/>
</linearGradient>
<clipPath id="clip0_4_39">
<rect width="44.1957" height="40.1111" fill="white" transform="translate(0.804321 0.888672)"/>
</clipPath>
</defs>
</svg>
